<svg id="Layer_2" data-name="Layer 2" xmlns="http://www.w3.org/2000/svg" viewBox="0 0 512 512"><defs><style>.cls-1{fill:#0095dd;}.cls-2{fill:#f1d2ad;}</style></defs><title>Artboard 10</title><path class="cls-1" d="M512,480.7h0a13.87,13.87,0,0,1-13.88,13.85L0,494.24v-.05L.34,32.31A14.86,14.86,0,0,1,15.21,17.45h0A14.86,14.86,0,0,1,30.08,32.33l-.33,434.21,468.39.27A13.87,13.87,0,0,1,512,480.7Z"/><path class="cls-2" d="M83.56,403.78h0a14.89,14.89,0,0,1-3-20.83L181.13,248.83l79.95,58.29L390.6,140.68,414.07,159,266.85,348.13l-79.53-58L104.39,400.8A14.89,14.89,0,0,1,83.56,403.78Z"/><circle class="cls-1" cx="416.87" cy="131.45" r="28"/></svg>